<?xml version="1.0" encoding="UTF-8"?>
<svg xmlns="http://www.w3.org/2000/svg" xmlns:xlink="http://www.w3.org/1999/xlink" viewBox="0 0 32 32" width="32px" height="32px">
<g id="surface78918091">
<path style=" stroke:none;fill-rule:nonzero;fill:rgb(87.058824%,87.058824%,87.058824%);fill-opacity:1;" d="M 24.910156 2.003906 C 19.171875 2.527344 15.5 5.078125 13.238281 7.558594 L 9.832031 2.445312 C 9.617188 2.121094 9.234375 1.953125 8.84375 2.011719 C 8.457031 2.070312 8.144531 2.351562 8.039062 2.726562 C 7.894531 3.238281 4.519531 15.234375 4.011719 18.863281 C 3.113281 25.277344 8.140625 29.585938 8.355469 29.765625 C 8.539062 29.917969 8.765625 30 9 30 L 17 30 C 21.335938 30 23.449219 23.164062 23.898438 21.515625 C 25.558594 19.839844 30 15.148438 30 13 C 30 12.539062 29.78125 12.117188 29.402344 11.84375 C 28.429688 11.144531 25.667969 11.546875 22.730469 12.269531 C 23.75 11.035156 25.785156 9.125 29.316406 7.949219 L 28.6875 6.050781 C 26.667969 6.722656 25.109375 7.617188 23.871094 8.519531 L 25.929688 3.371094 C 26.058594 3.050781 26.011719 2.679688 25.804688 2.402344 C 25.597656 2.121094 25.25 1.972656 24.910156 2.003906 Z M 23.4375 4.21875 L 19.488281 13.164062 C 18.476562 13.46875 17.511719 13.773438 16.683594 14.050781 L 17.316406 15.949219 C 21.402344 14.585938 26.273438 13.375 27.882812 13.425781 C 27.347656 14.679688 25.003906 17.582031 22.292969 20.292969 C 22.164062 20.417969 22.074219 20.582031 22.03125 20.757812 C 21.558594 22.636719 19.621094 28 17 28 L 9.390625 28 C 8.671875 27.296875 6.652344 25.074219 6.078125 21.984375 C 7.144531 21.941406 8 21.074219 8 20 C 8 18.960938 7.199219 18.132812 6.183594 18.035156 C 6.8125 14.832031 8.484375 8.625 9.378906 5.371094 L 11.929688 9.195312 C 10.632812 11.027344 10.101562 12.53125 10.050781 12.683594 L 11.949219 13.316406 C 12.058594 12.992188 14.597656 5.808594 23.4375 4.21875 Z M 16 20 C 14.894531 20 14 20.894531 14 22 C 14 23.105469 14.894531 24 16 24 C 17.105469 24 18 23.105469 18 22 C 18 20.894531 17.105469 20 16 20 Z M 16 20 "/>
</g>
</svg>
